:FULLY-SPECIFIED
:FORCE-ALL-JOINTS-BE-3DOF
:DEGREES
33
root 8.30612 15.6963 -30.6 7.96727 -7.46334 -6.98269
lfemur -46.2296 9.63412 -12.1594
ltibia 37.887 -0 0
lfoot 0.211266 7.03192 0.00636709
ltoes -5.34937 0 0
rfemur 23.8026 5.81688 29.0636
rtibia -2.72948 0 0
rfoot -0.617784 2.21372 -0.203856
rtoes -26.1354 0 0
lowerback -8.37697 1.34232 2.99733
upperback -1.23052 1.35775 3.97069
thorax 3.37458 0.689248 2.58252
lowerneck -20.6762 -4.83643 -12.7047
upperneck 15.1009 -5.95635 15.3358
head 9.01895 -1.98358 6.62577
lclavicle -2.68266e-14 -4.44493e-14 -2.54125e-30
lhumerus -44.6947 -5.75228 91.3019
lradius 23.4226 -0 0
lwrist 0.70216 0 0
lhand 5.40844 -17.6849 0.0612089
lfingers 7.12502 -0 0
lthumb 30.7491 9.65696 0.0310061
rclavicle -2.68266e-14 -4.44493e-14 -2.54125e-30
rhumerus -44.9299 20.1781 -92.8697
rradius 57.798 -0 0
rwrist -27.611 0 0
rhand -31.2247 -34.386 -0.0287489
rfingers 7.12502 -0 0
rthumb -4.50008 -64.3165 -0.0279005
34
root 8.32062 15.6943 -30.5006 7.94685 -7.66288 -6.94744
lfemur -45.9981 9.58405 -12.2217
ltibia 37.6288 -0 0
lfoot 0.359503 7.029 0.00663212
ltoes -5.15236 0 0
rfemur 23.9952 5.85023 28.897
rtibia -2.57774 0 0
rfoot -0.823524 2.09118 -0.181066
rtoes -26.5405 0 0
lowerback -8.43028 1.33742 2.96222
upperback -1.22736 1.35082 3.98578
thorax 3.40875 0.685076 2.61869
lowerneck -20.741 -4.81876 -12.6785
upperneck 15.1875 -5.92609 15.2601
head 9.05149 -1.97212 6.60126
lclavicle -2.74885e-14 -4.52398e-14 -2.20625e-30
lhumerus -44.6888 -5.89811 91.3853
lradius 23.3741 -0 0
lwrist 0.569044 0 0
lhand 5.64496 -17.6284 0.0506504
lfingers 7.12502 -0 0
lthumb 30.9762 9.68727 0.0254247
rclavicle -2.74885e-14 -4.52398e-14 -2.20625e-30
rhumerus -45.0579 20.1537 -93.0236
rradius 57.6252 -0 0
rwrist -27.5206 0 0
rhand -31.1742 -34.4478 -0.0250764
rfingers 7.12502 -0 0
rthumb -4.45134 -64.3796 -0.0243384
35
root 8.33165 15.6922 -30.4237 7.92429 -7.85345 -6.90652
lfemur -45.7545 9.5284 -12.2912
ltibia 37.3746 -0 0
lfoot 0.489031 7.02791 0.00664899
ltoes -4.9611 0 0
rfemur 24.1424 5.88263 28.7285
rtibia -2.38434 0 0
rfoot -1.03223 1.96307 -0.158038
rtoes -26.9152 0 0
lowerback -8.4787 1.33062 2.92355
upperback -1.22457 1.34207 3.9991
thorax 3.43988 0.679965 2.65482
lowerneck -20.8042 -4.80125 -12.6527
upperneck 15.2735 -5.89616 15.1853
head 9.08372 -1.96087 6.57708
lclavicle -2.81147e-14 -4.59576e-14 -1.8789e-30
lhumerus -44.6702 -6.04321 91.4625
lradius 23.3305 -0 0
lwrist 0.443013 0 0
lhand 5.85879 -17.5786 0.0408867
lfingers 7.12502 -0 0
lthumb 31.1816 9.71368 0.0203028
rclavicle -2.81147e-14 -4.59576e-14 -1.8789e-30
rhumerus -45.1789 20.1254 -93.1673
rradius 57.4469 -0 0
rwrist -27.4298 0 0
rhand -31.1256 -34.4983 -0.0214678
rfingers 7.12502 -0 0
rthumb -4.40446 -64.4312 -0.0208379
36
root 8.33898 15.6899 -30.3708 7.89969 -8.03464 -6.86018
lfemur -45.4997 9.46755 -12.3677
ltibia 37.125 -0 0
lfoot 0.599884 7.02862 0.00641708
ltoes -4.77606 0 0
rfemur 24.245 5.91382 28.5587
rtibia -2.15089 0 0
rfoot -1.24317 1.82993 -0.1349
rtoes -27.2593 0 0
lowerback -8.52219 1.32199 2.88152
upperback -1.22217 1.33157 4.01065
thorax 3.46795 0.673956 2.6908
lowerneck -20.8654 -4.78393 -12.6274
upperneck 15.3588 -5.86665 15.1117
head 9.11554 -1.94987 6.55332
lclavicle -2.87041e-14 -4.66022e-14 -1.56172e-30
lhumerus -44.6391 -6.18716 91.5335
lradius 23.2917 -0 0
lwrist 0.324303 0 0
lhand 6.04981 -17.5355 0.0319914
lfingers 7.12502 -0 0
lthumb 31.3651 9.73621 0.0156789
rclavicle -2.87041e-14 -4.66022e-14 -1.56172e-30
rhumerus -45.2926 20.0932 -93.3005
rradius 57.2637 -0 0
rwrist -27.3391 0 0
rhand -31.0791 -34.5375 -0.017949
rfingers 7.12502 -0 0
rthumb -4.35954 -64.4716 -0.0174238
37
root 8.34236 15.6873 -30.3434 7.87317 -8.20604 -6.80868
lfemur -45.2348 9.40189 -12.4507
ltibia 36.8807 -0 0
lfoot 0.692096 7.03109 0.00593768
ltoes -4.59773 0 0
rfemur 24.3034 5.94354 28.3881
rtibia -1.87902 0 0
rfoot -1.4556 1.69231 -0.111771
rtoes -27.572 0 0
lowerback -8.56071 1.3116 2.83636
upperback -1.22015 1.3194 4.02043
thorax 3.49293 0.667089 2.72651
lowerneck -20.9246 -4.76688 -12.6027
upperneck 15.4431 -5.83766 15.0394
head 9.14687 -1.93913 6.53002
lclavicle -2.92554e-14 -4.7173e-14 -1.25714e-30
lhumerus -44.5959 -6.32953 91.5981
lradius 23.2579 -0 0
lwrist 0.213146 0 0
lhand 6.21788 -17.499 0.0240305
lfingers 7.12502 -0 0
lthumb 31.5265 9.75487 0.0115874
rclavicle -2.92554e-14 -4.7173e-14 -1.25714e-30
rhumerus -45.3989 20.0575 -93.423
rradius 57.0765 -0 0
rwrist -27.2487 0 0
rhand -31.0347 -34.5656 -0.0145445
rfingers 7.12502 -0 0
rthumb -4.31669 -64.5007 -0.0141201
38
root 8.34155 15.6845 -30.3429 7.84482 -8.36726 -6.75229
lfemur -44.961 9.3318 -12.5399
ltibia 36.6426 -0 0
lfoot 0.765703 7.03526 0.00521397
ltoes -4.42657 0 0
rfemur 24.3184 5.97151 28.2174
rtibia -1.57034 0 0
rfoot -1.66879 1.55075 -0.088767
rtoes -27.8531 0 0
lowerback -8.59423 1.29953 2.78826
upperback -1.21851 1.30562 4.02844
thorax 3.5148 0.659407 2.76183
lowerneck -20.9816 -4.75013 -12.5787
upperneck 15.5262 -5.80926 14.9687
head 9.17759 -1.9287 6.50728
lclavicle -2.97676e-14 -4.76695e-14 -9.67488e-31
lhumerus -44.5409 -6.46988 91.6562
lradius 23.229 -0 0
lwrist 0.109776 0 0
lhand 6.36285 -17.4691 0.0170621
lfingers 7.12502 -0 0
lthumb 31.6658 9.76967 0.00805798
rclavicle -2.97676e-14 -4.76695e-14 -9.67488e-31
rhumerus -45.4974 20.0185 -93.5347
rradius 56.8858 -0 0
rwrist -27.1589 0 0
rhand -30.9926 -34.5827 -0.0112775
rfingers 7.12502 -0 0
rthumb -4.27602 -64.5188 -0.0109494
39
root 8.33631 15.6813 -30.3708 7.81477 -8.5179 -6.69128
lfemur -44.6791 9.25764 -12.635
ltibia 36.4112 -0 0
lfoot 0.820738 7.0411 0.00425089
ltoes -4.26305 0 0
rfemur 24.2906 5.99749 28.0469
rtibia -1.22647 0 0
rfoot -1.882 1.40578 -0.0659931
rtoes -28.1019 0 0
lowerback -8.62269 1.28582 2.73745
upperback -1.21725 1.29031 4.03467
thorax 3.53352 0.650952 2.79665
lowerneck -21.0363 -4.73375 -12.5554
upperneck 15.6077 -5.78156 14.8998
head 9.20763 -1.91861 6.48514
lclavicle -3.02395e-14 -4.80911e-14 -6.94951e-31
lhumerus -44.4744 -6.60777 91.7075
lradius 23.205 -0 0
lwrist 0.0144262 0 0
lhand 6.48459 -17.4458 0.0111366
lfingers 7.12502 -0 0
lthumb 31.7828 9.78063 0.00511592
rclavicle -3.02395e-14 -4.80911e-14 -6.94951e-31
rhumerus -45.5881 19.9764 -93.6352
rradius 56.6925 -0 0
rwrist -27.07 0 0
rhand -30.9528 -34.5889 -0.0081699
rfingers 7.12502 -0 0
rthumb -4.23762 -64.526 -0.0079329
40
root 8.3264 15.6777 -30.4287 7.78315 -8.65755 -6.6259
lfemur -44.3904 9.1798 -12.7356
ltibia 36.1874 -0 0
lfoot 0.857236 7.04857 0.00305508
ltoes -4.10767 0 0
rfemur 24.2205 6.02122 27.8774
rtibia -0.849049 0 0
rfoot -2.0945 1.25796 -0.0435482
rtoes -28.3181 0 0
lowerback -8.64606 1.27058 2.68412
upperback -1.21637 1.27354 4.03914
thorax 3.54907 0.641765 2.83087
lowerneck -21.0884 -4.71779 -12.5329
upperneck 15.6874 -5.75465 14.8329
head 9.23688 -1.90888 6.46369
lclavicle -3.06699e-14 -4.84372e-14 -4.41598e-31
lhumerus -44.3969 -6.74276 91.7521
lradius 23.186 -0 0
lwrist -0.0726689 0 0
lhand 6.58296 -17.4291 0.00629618
lfingers 7.12502 -0 0
lthumb 31.8774 9.78776 0.00278209
rclavicle -3.06699e-14 -4.84372e-14 -4.41598e-31
rhumerus -45.6706 19.9315 -93.7244
rradius 56.4971 -0 0
rwrist -26.9823 0 0
rhand -30.9156 -34.5843 -0.00524215
rfingers 7.12502 -0 0
rthumb -4.20161 -64.5223 -0.0050905
41
root 8.31156 15.6737 -30.518 7.75007 -8.78581 -6.55644
lfemur -44.0959 9.09863 -12.8414
ltibia 35.9719 -0 0
lfoot 0.875233 7.05764 0.00163483
ltoes -3.96088 0 0
rfemur 24.1088 6.04245 27.7094
rtibia -0.439684 0 0
rfoot -2.30554 1.10783 -0.0215229
rtoes -28.5011 0 0
lowerback -8.6643 1.25385 2.62849
upperback -1.21586 1.25538 4.04183
thorax 3.56142 0.631888 2.86435
lowerneck -21.1378 -4.7023 -12.5112
upperneck 15.7651 -5.72862 14.7682
head 9.26524 -1.89956 6.44299
lclavicle -3.10577e-14 -4.87074e-14 -2.09355e-31
lhumerus -44.3085 -6.8744 91.7896
lradius 23.1721 -0 0
lwrist -0.151276 0 0
lhand 6.65783 -17.4191 0.00257523
lfingers 7.12502 -0 0
lthumb 31.9494 9.79108 0.00107284
rclavicle -3.10577e-14 -4.87074e-14 -2.09355e-31
rhumerus -45.7448 19.8839 -93.802
rradius 56.3004 -0 0
rwrist -26.8961 0 0
rhand -30.8808 -34.5691 -0.0025131
rfingers 7.12502 -0 0
rthumb -4.16809 -64.5078 -0.0024406
42
root 8.29157 15.6692 -30.6402 7.71568 -8.90229 -6.48317
lfemur -43.7966 9.01449 -12.9519
ltibia 35.7653 0 0
lfoot 0.874761 7.06825 0
ltoes -3.82316 0 0
rfemur 23.9562 6.06094 27.5435
rtibia 9.54166e-15 0 0
rfoot -2.51438 0.955932 0
rtoes -28.6505 0 0
lowerback -8.67737 1.23572 2.57076
upperback -1.21574 1.2359 4.04275
thorax 3.57054 0.621362 2.89699
lowerneck -21.1844 -4.68735 -12.4905
upperneck 15.8404 -5.70357 14.706
head 9.29263 -1.89066 6.42311
lclavicle -3.14018e-14 -4.8901e-14 0
lhumerus -44.2098 -7.00223 91.8201
lradius 23.1631 0 0
lwrist -0.221162 0 0
lhand 6.70904 -17.4156 0
lfingers 7.12502 0 0
lthumb 31.9987 9.79058 0
rclavicle -3.14018e-14 -4.8901e-14 0
rhumerus -45.8105 19.8339 -93.8679
rradius 56.1032 0 0
rwrist -26.8117 0 0
rhand -30.8488 -34.5432 0
rfingers 7.12502 0 0
rthumb -4.13716 -64.4827 0
43
root 8.31521 15.6751 -30.4953 7.67688 -9.0097 -6.39938
lfemur -43.4787 8.92083 -13.0788
ltibia 35.5688 -0 0
lfoot 0.841679 7.08499 -0.00249571
ltoes -3.69074 0 0
rfemur 23.726 6.07058 27.3724
rtibia 0.532596 -0 0
rfoot -2.73109 0.791061 0.0221535
rtoes -28.7474 0 0
lowerback -8.68114 1.21463 2.50626
upperback -1.21635 1.21369 4.04074
thorax 3.57378 0.609462 2.93015
lowerneck -21.2299 -4.67195 -12.4696
upperneck 15.9163 -5.67814 14.6441
head 9.32004 -1.88163 6.40343
lclavicle -3.16837e-14 -4.89659e-14 1.77776e-31
lhumerus -44.0855 -7.12827 91.8371
lradius 23.1584 -0 0
lwrist -0.282809 0 0
lhand 6.72221 -17.4232 -0.000778788
lfingers 7.12502 -0 0
lthumb 32.0115 9.7837 -7.7167e-05
rclavicle -3.16837e-14 -4.89659e-14 1.77776e-31
rhumerus -45.8648 19.7785 -93.9193
rradius 55.8937 -0 0
rwrist -26.7259 0 0
rhand -30.8197 -34.497 0.00226789
rfingers 7.12502 -0 0
rthumb -4.10903 -64.4371 0.00220296
44
root 8.34075 15.6832 -30.3396 7.6307 -9.11096 -6.29867
lfemur -43.1284 8.81155 -13.2332
ltibia 35.3824 -0 0
lfoot 0.763213 7.11201 -0.00642094
ltoes -3.55962 0 0
rfemur 23.3845 6.06564 27.189
rtibia 1.21649 -0 0
rfoot -2.96567 0.60242 0.0459054
rtoes -28.7753 0 0
lowerback -8.67192 1.18908 2.43051
upperback -1.21801 1.1874 4.03475
thorax 3.56878 0.595487 2.96521
lowerneck -21.276 -4.65516 -12.4474
upperneck 15.9956 -5.651 14.5805
head 9.34848 -1.8719 6.38331
lclavicle -3.18882e-14 -4.88558e-14 3.16743e-31
lhumerus -43.9216 -7.25487 91.8348
lradius 23.1573 -0 0
lwrist -0.336946 0 0
lhand 6.68455 -17.4457 0.000797996
lfingers 7.12502 -0 0
lthumb 31.9756 9.76811 0.00115026
rclavicle -3.18882e-14 -4.88558e-14 3.16743e-31
rhumerus -45.9057 19.7147 -93.954
rradius 55.6605 -0 0
rwrist -26.6354 0 0
rhand -30.7935 -34.4213 0.00426728
rfingers 7.12502 -0 0
rthumb -4.08377 -64.3622 0.00414574
